#!OML:ASF E:\inclinewalkrobotboard\Project 1\Capture day 1\Session 1\subject1.ASF
:FULLY-SPECIFIED
:DEGREES
268
root 6.92895 16.3315 -11.0885 -170.498 -19.4216 -181.666
lowerback -5.48228 0.774905 -6.88758
upperback 0.96783 1.46981 1.03224
thorax 3.89147 0.561104 5.0773
lowerneck -2.97285 7.64032 -1.31052
upperneck 8.60133 10.0479 1.83772
head 3.10298 4.95876 1.16116
rclavicle 5.42185e-014 -2.98177e-015
rhumerus -53.3226 -38.9253 -58.1907
rradius 21.8467
rwrist 26.1865
rhand -22.0341 -39.8302
rfingers 7.12502
rthumb 4.37587 -69.765
lclavicle 5.42185e-014 -2.98177e-015
lhumerus -22.2702 17.731 85.5155
lradius 5.42197
lwrist -47.5653
lhand -39.2533 -22.5399
lfingers 7.12502
lthumb -12.2479 7.08151
rfemur -21.7138 5.43765 13.7703
rtibia 11.1686
rfoot -3.57282 -2.89893
rtoes -27.8429
lfemur -2.38882 -5.43973 -24.4969
ltibia 9.45095
lfoot -9.20717 -13.3967
ltoes -23.9407
269
root 6.92693 16.3311 -11.0438 -170.407 -19.6023 -181.861
lowerback -5.45223 1.12108 -6.85095
upperback 0.913485 1.93037 0.857113
thorax 3.76056 0.798898 4.90664
lowerneck -2.57556 8.41198 0.108467
upperneck 8.25395 11.1255 0.335611
head 3.07281 5.48946 0.468813
rclavicle 1.42628e-014 9.54166e-015
rhumerus -53.8271 -39.1014 -57.7959
rradius 21.9448
rwrist 26.0629
rhand -21.7317 -40.1998
rfingers 7.12502
rthumb 4.66789 -70.1283
lclavicle 1.42628e-014 9.54166e-015
lhumerus -22.9027 18.0188 83.9292
lradius 4.19968
lwrist -46.456
lhand -39.341 -20.0662
lfingers 7.12502
lthumb -12.3325 9.55012
rfemur -21.9061 5.33243 13.4289
rtibia 11.2361
rfoot -3.35121 -3.04918
rtoes -27.7612
lfemur -2.67042 -5.29241 -24.7219
ltibia 9.59544
lfoot -8.94739 -13.5883
ltoes -24.2536
270
root 6.92679 16.3354 -11.0081 -170.327 -20.1887 -181.797
lowerback -5.58734 1.377 -6.59099
upperback 0.926249 2.2667 0.783055
thorax 3.81672 0.970088 4.71312
lowerneck -1.4186 9.41283 0.407144
upperneck 6.48276 12.5365 -0.70299
head 2.35987 6.20013 0.0268524
rclavicle -4.52981e-014 1.21259e-014
rhumerus -54.1458 -39.3595 -57.4842
rradius 21.9993
rwrist 25.991
rhand -21.618 -40.5632
rfingers 7.12502
rthumb 4.77762 -70.4893
lclavicle -4.52981e-014 1.21259e-014
lhumerus -23.6946 18.0978 82.1892
lradius 3.68914
lwrist -45.3997
lhand -39.0779 -17.9255
lfingers 7.12502
lthumb -12.0787 11.7058
rfemur -21.8396 5.41918 13.3101
rtibia 10.9137
rfoot -3.14367 -3.71059
rtoes -27.4335
lfemur -2.99594 -5.26639 -24.541
ltibia 9.65267
lfoot -8.4608 -13.9132
ltoes -24.4759
271
root 6.92418 16.3398 -10.9867 -170.377 -20.713 -181.654
lowerback -5.71425 1.72978 -6.29122
upperback 0.918849 2.72698 0.721384
thorax 3.83679 1.20564 4.52017
lowerneck -0.534205 9.90994 0.873598
upperneck 4.93616 13.2403 -1.71683
head 1.81404 6.56557 -0.42833
rclavicle -2.31584e-014 -6.95746e-015
rhumerus -54.6694 -39.5935 -56.9542
rradius 21.9937
rwrist 25.9676
rhand -21.9117 -40.9132
rfingers 7.12502
rthumb 4.49406 -70.8455
lclavicle -2.31584e-014 -6.95746e-015
lhumerus -24.1719 18.002 80.5966
lradius 2.57968
lwrist -44.5902
lhand -39.0619 -16.7457
lfingers 7.12502
lthumb -12.0634 12.8866
rfemur -21.6311 5.42515 13.3431
rtibia 10.6174
rfoot -3.04158 -4.16505
rtoes -26.9603
lfemur -3.05622 -5.25586 -24.318
ltibia 9.52883
lfoot -8.02682 -14.1392
ltoes -24.5811
272
root 6.91658 16.345 -10.9742 -170.607 -21.0512 -181.611
lowerback -5.77179 2.12688 -6.10009
upperback 0.98271 3.25226 0.630512
thorax 3.88637 1.46855 4.3627
lowerneck 3.67737 12.7697 0.461571
upperneck 1.98747 16.9934 -0.909003
head 0.148236 8.4836 -0.480991
rclavicle -3.5334e-014 1.90833e-014
rhumerus -55.1376 -39.6538 -56.5548
rradius 22.1123
rwrist 25.724
rhand -22.1833 -41.379
rfingers 7.12502
rthumb 4.23179 -71.3167
lclavicle -3.5334e-014 1.90833e-014
lhumerus -24.716 17.9153 78.9538
lradius 1.73528
lwrist -43.7366
lhand -38.9266 -16.3375
lfingers 7.12502
lthumb -11.9329 13.3024
rfemur -21.198 5.34504 13.3229
rtibia 10.3362
rfoot -3.00548 -4.32991
rtoes -26.4888
lfemur -2.75971 -5.29557 -24.3165
ltibia 9.28366
lfoot -7.72977 -14.2047
ltoes -24.531
273
root 6.91562 16.3592 -10.9607 -170.992 -22.7209 -181.851
lowerback -5.3259 2.05606 -6.15628
upperback 1.15455 3.1389 0.588778
thorax 3.82706 1.40969 4.325
lowerneck 1.93046 12.6187 0.667195
upperneck 2.70807 16.8257 -1.50481
head 0.714534 8.39575 -0.521522
rclavicle 5.58833e-014 -9.93923e-015
rhumerus -55.4013 -39.7062 -56.2809
rradius 22.2809
rwrist 25.517
rhand -22.1793 -41.4489
rfingers 7.12502
rthumb 4.23559 -71.3865
lclavicle 5.58833e-014 -9.93923e-015
lhumerus -25.5963 17.8427 77.167
lradius 1.88957
lwrist -43.0031
lhand -38.5707 -16.0936
lfingers 7.12502
lthumb -11.5897 13.5659
rfemur -19.8065 5.36269 12.8585
rtibia 9.38174
rfoot -3.05881 -5.96423
rtoes -26.0665
lfemur -2.4805 -5.93536 -24.4123
ltibia 9.4449
lfoot -7.00614 -14.8655
ltoes -24.572
274
root 6.92406 16.3457 -10.9131 -170.385 -22.2166 -181.688
lowerback -5.74935 2.73495 -5.96942
upperback 0.918801 4.05527 0.460231
thorax 3.73247 1.87882 4.16788
lowerneck 2.50635 12.1729 2.85691
upperneck 1.43242 16.3136 -4.59271
head 0.678457 8.16466 -1.82699
rclavicle -2.78547e-014 -8.15017e-015
rhumerus -55.7311 -39.7808 -55.9834
rradius 22.4741
rwrist 25.2587
rhand -22.1865 -41.2264
rfingers 7.12502
rthumb 4.22869 -71.1642
lclavicle -2.78547e-014 -8.15017e-015
lhumerus -26.4175 17.5454 75.4567
lradius 2.32632
lwrist -42.5361
lhand -38.2788 -16.1396
lfingers 7.12502
lthumb -11.3081 13.5355
rfemur -21.295 5.44228 12.8858
rtibia 10.1462
rfoot -3.02626 -5.58559
rtoes -25.4412
lfemur -3.43791 -5.80222 -24.3252
ltibia 9.48329
lfoot -7.19182 -14.4639
ltoes -24.7586
275
root 6.92047 16.3502 -10.8882 -170.547 -22.6163 -181.627
lowerback -5.5681 3.22019 -5.71131
upperback 0.927515 4.67643 0.348428
thorax 3.59795 2.19894 3.93938
lowerneck 1.09775 12.5119 2.8687
upperneck 2.54329 16.733 -2.48149
head 1.07731 8.3655 -1.05279
rclavicle -2.93207e-014 1.47101e-014
rhumerus -55.9518 -39.6182 -55.9147
rradius 22.7173
rwrist 24.6063
rhand -21.8554 -41.6012
rfingers 7.12502
rthumb 4.54841 -71.5324
lclavicle -2.93207e-014 1.47101e-014
lhumerus -27.0815 17.0844 73.8801
lradius 2.81445
lwrist -42.2428
lhand -38.0922 -15.8307
lfingers 7.12502
lthumb -11.1282 13.8542
rfemur -21.1192 5.30584 12.8933
rtibia 10.1207
rfoot -3.02529 -5.77672
rtoes -25.3448
lfemur -3.42982 -6.05739 -24.3484
ltibia 9.57564
lfoot -7.16122 -14.53
ltoes -24.6462
276
root 6.92205 16.3491 -10.8613 -170.518 -23.4474 -181.797
lowerback -5.43475 3.50256 -5.7263
upperback 0.928637 5.04865 0.22704
thorax 3.49389 2.38803 3.8365
lowerneck -3.70996 11.0809 2.88285
upperneck 9.29965 14.388 1.63475
head 3.77115 7.24222 0.694529
rclavicle -2.0276e-014 4.96962e-015
rhumerus -55.8094 -39.4656 -56.011
rradius 22.8017
rwrist 24.1606
rhand -21.3389 -42.494
rfingers 7.12502
rthumb 5.04708 -72.4139
lclavicle -2.0276e-014 4.96962e-015
lhumerus -27.7407 16.7158 72.2996
lradius 3.49867
lwrist -42.2077
lhand -37.8541 -15.4819
lfingers 7.12502
lthumb -10.8986 14.2152
rfemur -20.9431 4.87022 12.6177
rtibia 10.0568
rfoot -3.03519 -6.22695
rtoes -25.9957
lfemur -3.69415 -6.54202 -24.5615
ltibia 9.94591
lfoot -6.98679 -14.804
ltoes -24.1958
277
root 6.93236 16.3749 -10.8853 -171.656 -25.3941 -182.144
lowerback -4.44598 3.40531 -6.21811
upperback 1.38648 4.89534 0.310105
thorax 3.38384 2.29455 4.13206
lowerneck -3.66084 11.7089 2.82843
upperneck 9.15802 15.2982 1.12309
head 3.7597 7.67454 0.580058
rclavicle -5.28519e-014 -9.34288e-015
rhumerus -55.4422 -39.3086 -56.2013
rradius 22.8433
rwrist 23.999
rhand -21.7781 -43.0336
rfingers 7.12502
rthumb 4.62308 -72.9631
lclavicle -5.28519e-014 -9.34288e-015
lhumerus -28.2309 16.5912 70.8516
lradius 3.92976
lwrist -42.4265
lhand -37.7922 -15.9663
lfingers 7.12502
lthumb -10.8389 13.734
rfemur -18.2063 5.38385 12.2133
rtibia 8.67926
rfoot -3.16994 -8.48998
rtoes -25.2623
lfemur -2.26975 -7.11407 -24.6846
ltibia 9.94053
lfoot -6.20924 -15.7988
ltoes -23.9881
278
root 6.92131 16.3478 -10.8285 -170.606 -24.7054 -182.451
lowerback -5.18722 4.00508 -6.27925
upperback 1.11583 5.74859 0.050674
thorax 3.44231 2.72244 3.99026
lowerneck -2.67356 12.5519 3.3951
upperneck 7.88106 16.6219 -0.90092
head 3.39767 8.28846 -0.178307
rclavicle -9.41494e-014 -4.57205e-015
rhumerus -55.2274 -38.8469 -56.3921
rradius 23.1666
rwrist 23.4967
rhand -22.3239 -42.4401
rfingers 7.12502
rthumb 4.09596 -72.3805
lclavicle -9.41494e-014 -4.57205e-015
lhumerus -28.6661 16.7486 69.5296
lradius 4.33779
lwrist -42.7271
lhand -37.6735 -16.2135
lfingers 7.12502
lthumb -10.7243 13.4928
rfemur -20.3559 4.2097 11.7824
rtibia 10.0684
rfoot -3.16584 -6.92069
rtoes -24.9391
lfemur -3.58878 -7.00096 -25.2863
ltibia 10.2078
lfoot -6.48954 -15.377
ltoes -24.0054
279
root 6.89514 16.3196 -10.7941 -169.364 -24.9188 -183.044
lowerback -6.34588 4.23407 -6.52026
upperback 0.96833 6.15603 -0.218205
thorax 3.90014 2.90313 3.96624
lowerneck -3.01278 12.0061 5.83964
upperneck 8.53448 15.9717 -3.48242
head 4.1882 7.93125 -1.32545
rclavicle 2.93456e-014 1.55052e-014
rhumerus -54.8173 -37.9348 -57.2829
rradius 24.087
rwrist 21.8786
rhand -21.3395 -43.7047
rfingers 7.12502
rthumb 5.04651 -73.6246
lclavicle 2.93456e-014 1.55052e-014
lhumerus -29.1086 17.0294 68.2355
lradius 4.96967
lwrist -43.058
lhand -37.3366 -16.0542
lfingers 7.12502
lthumb -10.3993 13.6686
rfemur -21.8291 2.73925 11.0339
rtibia 10.718
rfoot -3.08604 -6.0504
rtoes -24.8586
lfemur -4.94387 -7.32136 -26.1439
ltibia 10.5932
lfoot -6.40394 -15.3741
ltoes -23.9869
280
root 6.90933 16.3487 -10.8081 -170.505 -26.1281 -183.405
lowerback -5.26488 4.32593 -7.0794
upperback 1.45014 6.25069 -0.11904
thorax 3.71737 2.93313 4.30694
lowerneck -2.43742 12.3638 7.62275
upperneck 7.91062 16.6728 -6.68601
head 3.95948 8.20893 -2.36198
rclavicle 1.82907e-013 -1.23246e-014
rhumerus -54.9883 -37.9575 -56.9933
rradius 24.2754
rwrist 21.8907
rhand -21.4761 -43.5278
rfingers 7.12502
rthumb 4.91465 -73.4508
lclavicle 1.82907e-013 -1.23246e-014
lhumerus -29.4057 17.2469 67.0341
lradius 5.57316
lwrist -43.4185
lhand -36.8908 -16.0908
lfingers 7.12502
lthumb -9.96931 13.6531
rfemur -19.32 3.43865 10.6173
rtibia 9.45475
rfoot -3.05643 -7.71762
rtoes -24.6641
lfemur -3.43945 -7.43777 -26.3829
ltibia 10.4867
lfoot -5.76368 -16.0662
ltoes -23.9488
281
root 6.93075 16.349 -10.7627 -170.495 -26.0814 -182.543
lowerback -5.28569 4.82855 -6.35541
upperback 1.269 6.86665 -0.0150624
thorax 3.53278 3.27001 4.04352
lowerneck -1.30671 12.6267 9.22806
upperneck 6.49589 17.2206 -9.6938
head 3.79062 8.45855 -3.51694
rclavicle -2.59166e-014 1.05356e-014
rhumerus -54.6088 -37.7653 -57.2842
rradius 24.7287
rwrist 20.7283
rhand -20.3534 -44.2691
rfingers 7.12502
rthumb 5.99866 -74.1641
lclavicle -2.59166e-014 1.05356e-014
lhumerus -29.6029 17.5352 65.9314
lradius 6.15744
lwrist -43.8727
lhand -36.3777 -16.333
lfingers 7.12502
lthumb -9.4742 13.434
rfemur -20.2361 4.4839 11.2658
rtibia 9.82681
rfoot -3.05642 -8.60558
rtoes -24.5215
lfemur -4.37931 -7.30161 -25.2236
ltibia 10.8693
lfoot -5.71286 -15.9354
ltoes -23.9134
